<?xml version="1.0" encoding="UTF-8" standalone="no"?>
<!DOCTYPE svg PUBLIC "-//W3C//DTD SVG 1.1//EN" "http://www.w3.org/Graphics/SVG/1.1/DTD/svg11.dtd">
<svg width="100%" height="100%" viewBox="0 0 512 512" version="1.1" xmlns="http://www.w3.org/2000/svg" xmlns:xlink="http://www.w3.org/1999/xlink" xml:space="preserve" xmlns:serif="http://www.serif.com/" style="fill-rule:evenodd;clip-rule:evenodd;stroke-linejoin:round;stroke-miterlimit:2;">
    <g transform="matrix(1,0,0,1,96,0)">
        <path d="M0,55.2L0,426C0,438.2 9.9,448 22,448C28.3,448 34.4,445.3 38.6,440.5L121.2,346L179.3,462.3C187.2,478.1 206.4,484.5 222.2,476.6C238,468.7 244.4,449.5 236.5,433.7L179.8,320L297.9,320C310.1,320 320,310.1 320,297.9C320,291.6 317.3,285.6 312.6,281.4L38.6,37.9C34.3,34.1 28.9,32 23.2,32C10.4,32 0,42.4 0,55.2Z" style="fill:rgb(255,62,0);fill-rule:nonzero;"/>
    </g>
</svg>
