<svg xmlns="http://www.w3.org/2000/svg">
<symbol xmlns="http://www.w3.org/2000/svg" viewBox="0 0 512 512" fill="currentColor" id="carrot"><path d="M320 88c0-23.9 14.5-45.4 23-55.8l.1 0c.1-.1 .4-.2 .9-.2c.4 0 .7 .1 .8 .1C352.9 42.3 368 65.6 368 96c0 14.7-1.8 22.9-3.2 26.9c-.6 1.6-1 2.6-1.2 2.9c-5.2 6.3-4.8 15.6 1.1 21.4s15.2 6.2 21.4 1.1c.4-.2 1.3-.7 2.9-1.2c4-1.3 12.2-3.2 26.9-3.2c30.4 0 53.7 15.1 63.9 23.2c0 .1 .1 .4 .1 .8c0 .5-.1 .8-.2 .9l0 .1c-10.4 8.5-32 23-55.8 23c-17.7 0-28.7-3.3-37.7-8.6c-9.8-5.7-18.3-14-31-26.7s-21.1-21.2-26.7-31c-5.3-9.1-8.6-20-8.6-37.7zm96 24c-6.3 0-11.9 .3-16.8 .8c.5-4.9 .8-10.5 .8-16.8c0-40.9-20.2-71.2-30.2-83.9C363.1 3.7 353.2 0 344 0s-19 3.7-25.7 11.8C308.7 23.6 288 52.5 288 88c0 19.5 3.3 34.8 9.9 48.2c-14.3-5.3-29.7-8.2-45.8-8.2c-50.9 0-97.2 29.3-119.1 75.2L2.3 477.7C-2 486.9-.2 497.8 7 505s18.1 9.1 27.3 4.7L308.8 379c45.9-21.9 75.2-68.2 75.2-119.1c0-16.1-2.9-31.5-8.2-45.8c13.4 6.6 28.6 9.9 48.2 9.9c35.5 0 64.4-20.7 76.2-30.3C508.3 187 512 177.2 512 168c0-9.2-3.7-19.1-12.1-25.8c-12.7-10.1-43-30.2-83.9-30.2zM252.1 160c55.2 0 99.9 44.7 99.9 99.9c0 38.5-22.2 73.6-56.9 90.2L174.2 407.6l-34.9-34.9c-6.2-6.2-16.4-6.2-22.6 0s-6.2 16.4 0 22.6l26.9 26.9L40.9 471.1 151.7 238.4l29 29c6.2 6.2 16.4 6.2 22.6 0s6.2-16.4 0-22.6l-36.6-36.6c18-29.6 50.3-48.1 85.4-48.1z"/></symbol>
<symbol xmlns="http://www.w3.org/2000/svg" viewBox="0 0 576 512" fill="currentColor" id="lamb"><path d="M368 32c-31 0-57 9.9-77.4 28.9L268.8 37.4C295.7 12.4 329.7 0 368 0c65 0 117.7 39 150.5 80c33.9 42.4 57.5 99.6 57.5 160c0 83.9-55.1 152.8-113.4 196.2C402.1 481.2 321.7 512 240 512c-36.8 0-86.5-4.4-130-19.3C73.4 480.1 0 444.3 0 360c0-38.6 17.8-68.3 42.5-88.1c19.6-15.8 41.4-26.8 63.3-37.8c27.3-13.8 54.6-27.6 77.7-50.7c13.8-13.8 19.7-27.9 30-52.9c3.2-7.7 6.8-16.5 11.2-26.6c7.7-17.6 20.6-44.7 44.1-66.5l21.8 23.4c-18.4 17.1-29.1 39-36.5 55.9c-4.3 9.8-7.8 18.3-11 26l-1.1 2.6c-9.5 23-17.5 42.4-35.9 60.7c-24.6 24.6-52.8 39.8-77.6 52.4c-2.8 1.4-5.5 2.8-8.2 4.2l0 0 0 0c-22.2 11.2-40.9 20.7-57.8 34.3C44.4 311.4 32 332.3 32 360c0 61.4 53 90.2 88.4 102.4C159.3 475.8 205.2 480 240 480c74 0 147.9-28.1 203.5-69.5C497.9 370 544 309.5 544 240c0-52.2-20.6-102.6-50.5-140C464.1 63.3 419.7 32 368 32zM352 224a32 32 0 1 1 64 0 32 32 0 1 1 -64 0zM121.9 297.7c28.3-11.9 65.5-27.6 106.8-69c23.4-23.4 35.6-52.6 47.2-81.3l.1-.2 0 0c2.4-5.9 4.8-11.9 7.3-17.6c7.1-16.3 15.7-32.9 29-45.3c14-13 32-20.3 55.6-20.3c38.6 0 74.7 23.8 100.5 56c26 32.5 43.5 75.9 43.5 120c0 55.2-37.2 107.3-87.6 144.8C373.6 422.6 306.3 448 240 448c-32.9 0-74.9-4.1-109.2-15.9C97.5 420.7 64 399 64 360c0-7.5 1.1-15.6 4.7-23.6c3.7-8.3 9.1-13.9 13.5-17.7c10.2-8.6 24.2-14.6 37.6-20.2l.8-.3 0 0 1.2-.5 0 0zm12.4 29.5l-1.2 .5c-15.2 6.4-24.3 10.5-30.2 15.5C98.6 346.8 96 351 96 360c0 16.7 14.1 31.2 45.2 41.9C170.9 412.1 209 416 240 416c58.6 0 119.4-22.6 165.3-56.8C451.7 324.6 480 280.8 480 240c0-35.9-14.5-72.5-36.5-100c-22.2-27.8-50.1-44-75.5-44c-16.3 0-26.3 4.7-33.9 11.7c-8.2 7.6-14.6 19-21.5 34.7c-2.3 5.3-4.6 11-7.1 17c-11.4 28.1-25.6 63.2-54.3 91.9c-45.8 45.8-87.7 63.5-117 75.8z"/></symbol>
<symbol xmlns="http://www.w3.org/2000/svg" viewBox="0 0 512 512" fill="currentColor" id="soup"><path d="M144 0c8.8 0 16 7.2 16 16V32c0 20.1 9.5 39.1 25.6 51.2C209.8 101.3 224 129.8 224 160v16c0 8.8-7.2 16-16 16s-16-7.2-16-16V160c0-20.1-9.5-39.1-25.6-51.2C142.2 90.7 128 62.2 128 32V16c0-8.8 7.2-16 16-16zm.8 445.5c7.7 3.7 13.7 10.3 16.5 18.4c3.3 9.4 12.2 16.1 22.7 16.1H328c10.4 0 19.4-6.7 22.7-16.1c2.8-8.1 8.7-14.7 16.5-18.4c61.4-29.2 105-90.1 109.3-162.2l.6-10.3c.5-9.2-6.8-16.9-16-16.9H50.9c-9.2 0-16.5 7.7-16 16.9l.6 10.3c4.2 72.1 47.8 133 109.3 162.2zM3 274.8C1.4 247.2 23.3 224 50.9 224H461.1c27.6 0 49.5 23.2 47.9 50.8l-.6 10.3c-4.9 84.1-55.9 155.1-127.5 189.2C373.3 496.3 352.5 512 328 512H184c-24.5 0-45.3-15.7-52.9-37.6C59.5 440.3 8.5 369.3 3.6 285.2L3 274.8zM288 16V32c0 20.1 9.5 39.1 25.6 51.2C337.8 101.3 352 129.8 352 160v16c0 8.8-7.2 16-16 16s-16-7.2-16-16V160c0-20.1-9.5-39.1-25.6-51.2C270.2 90.7 256 62.2 256 32V16c0-8.8 7.2-16 16-16s16 7.2 16 16z"/></symbol>
<symbol xmlns="http://www.w3.org/2000/svg" viewBox="0 0 512 512" fill="currentColor" id="broccoli"><path d="M256 0c-37.2 0-69.5 21.2-85.4 52.1C162.2 49.4 153.3 48 144 48c-48.6 0-88 39.4-88 88c0 10.7 1.9 20.9 5.4 30.4C25.5 180.3 0 215.2 0 256c0 53 43 96 96 96h8s47.7 54.5 80.2 138.3c5 12.8 17.1 21.7 30.9 21.7h81.9c13.8 0 25.9-8.9 30.9-21.7C360.3 406.5 408 352 408 352h8c53 0 96-43 96-96c0-40.8-25.5-75.7-61.4-89.6c3.5-9.5 5.4-19.7 5.4-30.4c0-48.6-39.4-88-88-88c-9.3 0-18.2 1.4-26.6 4.1C325.5 21.2 293.2 0 256 0zm19.2 352l-2 4.9L256 400l-17.2-43.1-2-4.9h38.4zm-72.9 0l24 59.9C231.1 424 242.9 432 256 432s24.9-8 29.7-20.1l24-59.9 57.7 0c-4.1 5.6-8.9 12.3-13.9 20c-16.9 25.5-38.2 62.1-55.4 106.7c-.2 .6-.6 1-.9 1.2c-.1 .1-.2 .1-.2 .1H215.1c0 0-.1 0-.2-.1c-.3-.2-.6-.6-.9-1.2c-17.3-44.6-38.5-81.2-55.4-106.7c-5.1-7.7-9.8-14.4-13.9-20h57.7zM194.6 77.8C202.5 51.3 227 32 256 32s53.5 19.3 61.4 45.8c1.4 4.7 4.8 8.5 9.3 10.3s9.6 1.5 13.9-.9C348.7 82.6 358 80 368 80c30.9 0 56 25.1 56 56c0 11.8-3.6 22.7-9.8 31.7c-3.1 4.6-3.7 10.4-1.5 15.5s6.9 8.6 12.4 9.4c31 4.4 54.9 31.1 54.9 63.4c0 35.3-28.7 64-64 64H96c-35.3 0-64-28.7-64-64c0-32.3 23.9-59 54.9-63.4c5.5-.8 10.2-4.3 12.4-9.4s1.7-10.9-1.5-15.5c-6.2-9-9.8-19.9-9.8-31.7c0-30.9 25.1-56 56-56c10 0 19.3 2.6 27.4 7.2c4.2 2.4 9.3 2.7 13.9 .9s8-5.6 9.3-10.3z"/></symbol>
<symbol xmlns="http://www.w3.org/2000/svg" viewBox="0 0 512 512" fill="currentColor" id="cookie"><path d="M242.7 48.7c-15.4-2.2-31.1 .6-44.8 7.9l-74 39.5C110.1 103.4 99.1 115 92.2 129L55.5 204.6c-6.8 14.1-9.1 30-6.4 45.4l14.5 82.8c2.7 15.4 10.2 29.6 21.4 40.4l60.3 58.4c11.2 10.9 25.5 17.9 40.9 20l83 11.7c15.4 2.2 31.1-.6 44.8-7.9l74-39.5c13.7-7.3 24.8-18.8 31.7-32.9l36.7-75.5c6.8-14.1 9.1-30 6.4-45.4l-14.6-82.8c-2.7-15.4-10.2-29.6-21.4-40.4L366.6 80.5c-11.2-10.9-25.5-17.9-40.9-20l-83-11.7zM182.8 28.4c19.7-10.5 42.3-14.5 64.4-11.4l83 11.7c22.1 3.1 42.7 13.2 58.7 28.7l60.3 58.4c16.1 15.6 26.8 35.8 30.7 57.9l14.6 82.8c3.9 22.1 .7 44.8-9.1 64.9L448.6 397c-9.8 20.1-25.7 36.6-45.4 47.2l-74 39.5c-19.7 10.5-42.3 14.5-64.4 11.4l-83-11.7c-22.1-3.1-42.7-13.2-58.7-28.7L62.8 396.2C46.8 380.6 36 360.3 32.2 338.3L17.6 255.5c-3.9-22.1-.7-44.8 9.1-64.9L63.4 115c9.8-20.1 25.7-36.6 45.4-47.2l74-39.5zM160 168a24 24 0 1 1 0 48 24 24 0 1 1 0-48zm8 184a24 24 0 1 1 48 0 24 24 0 1 1 -48 0zM288 232a24 24 0 1 1 0 48 24 24 0 1 1 0-48zm8-104a24 24 0 1 1 48 0 24 24 0 1 1 -48 0zm56 200a24 24 0 1 1 0 48 24 24 0 1 1 0-48z"/></symbol>
<symbol xmlns="http://www.w3.org/2000/svg" viewBox="0 0 512 512" fill="currentColor" id="pizza"><path d="M167.5 32.8c-6.1-.4-12.4 3.7-14.4 11.1l-10 37.6C295 96.1 415.9 217 430.5 368.9l37.6-10c7.4-2 11.5-8.3 11.1-14.4C467.7 177.7 334.3 44.3 167.5 32.8zM38.6 473.4l360.5-96.1c-11-140.9-123.5-253.4-264.4-264.4L38.6 473.4zM4.7 507.3c-4-4-5.6-9.9-4.1-15.4L122.2 35.6C127.7 14.9 146.9-.7 169.7 .9C352.5 13.5 498.5 159.5 511.1 342.3c1.6 22.8-14 41.9-34.7 47.5L20.1 511.5c-5.5 1.5-11.4-.1-15.4-4.1zM176 216a24 24 0 1 1 0 48 24 24 0 1 1 0-48zm72 120a24 24 0 1 1 48 0 24 24 0 1 1 -48 0zm-104 8a24 24 0 1 1 0 48 24 24 0 1 1 0-48z"/></symbol>
<symbol xmlns="http://www.w3.org/2000/svg" viewBox="0 0 384 512" fill="currentColor" id="fries"><path d="M151.6 2.4c4.7-2.9 10.6-3.2 15.6-.7l64 32c5.4 2.7 8.8 8.3 8.8 14.3V266.4c-8.5 2.4-19 4.3-32 5.1V57.9l-32-16V271.5c-13-.9-23.5-2.7-32-5.1V16c0-5.5 2.9-10.7 7.6-13.6zM279.1 233.8c-1 4-2.9 9-7.1 14.1V208.6L299.1 84.5 272 89.9V57.3l44.9-9c5.3-1.1 10.8 .6 14.6 4.5s5.4 9.4 4.2 14.6l-28.4 130c-15.5 8-24.9 23.6-28 36.4zM362.6 192H332.5l19.8-99.1c1.7-8.7 10.2-14.3 18.8-12.6s14.3 10.2 12.6 18.8l-18.6 92.9c-.8 0-1.7-.1-2.5-.1zM21.4 192c-.9 0-1.7 0-2.5 .1L.3 99.1C-1.4 90.5 4.2 82 12.9 80.3s17.1 3.9 18.8 12.6L51.5 192H21.4zm98.8 63.6c-10.3-7.4-13.9-15.8-15.4-21.7c-3-12.1-11.4-26.5-25.2-34.9L56.2 58.6c-1.2-6.9 2.3-13.8 8.6-16.9L112 18.1V53.9L89.7 65l31.9 191.5c-.5-.3-1-.7-1.4-1zM89.2 480H294.8l54.3-224h-9.8c-5.3 16.4-16.3 35.8-38.2 51.6C276.4 325.3 241.1 336 192 336s-84.4-10.7-109.1-28.4C61 291.8 50 272.4 44.7 256H34.9L89.2 480zm-31.1 7.5L.6 250.5c-.4-1.7-.6-3.3-.6-5.1C0 233.6 9.6 224 21.4 224H54.3c9.5 0 17.2 8.3 19.5 17.5C79.6 265 102.7 304 192 304s112.4-39 118.2-62.5c2.3-9.2 10-17.5 19.5-17.5h32.9c11.8 0 21.4 9.6 21.4 21.4c0 1.7-.2 3.4-.6 5.1l-57.5 237c-3.5 14.4-16.3 24.5-31.1 24.5H89.2c-14.8 0-27.6-10.1-31.1-24.5z"/></symbol>
<symbol xmlns="http://www.w3.org/2000/svg" viewBox="0 0 512 512" fill="currentColor" id="egg"><path d="M461.1 182.8c31.6 42.6 22.6 102.7-19.9 134.3c-13.4 9.9-28.4 15.8-43.8 18c-23.8 3.3-49.1 13.4-70.9 26.8c-21.6 13.3-42.8 31.8-55.7 54.1C235.5 477.2 157.2 498.2 96 462.9S13.8 349.2 49.1 288c28.1-48.6 42.7-116.9 47.2-168.4c2-22.3 11.7-44 29.1-60.8c38.2-36.7 99-35.5 135.7 2.7c17.9 18.6 42.8 36.8 68.2 51.6s53.5 27.6 78.5 33.9c20.6 5.3 39.6 17.4 53.3 35.8zM415.8 116c-42.4-10.9-101.2-45.1-131.5-76.7c-49-51-130-52.6-181-3.6C80.1 58 67.1 87 64.5 116.8C60.2 166.1 46.2 229.1 21.4 272C-22.7 348.5 3.5 446.4 80 490.6s174.4 18 218.6-58.6c18.8-32.5 66.1-60 103.3-65.2c20.5-2.9 40.6-10.8 58.4-24c56.8-42.1 68.7-122.3 26.6-179.1c-18.2-24.6-43.5-40.7-71-47.8zM224 336a96 96 0 1 1 0-192 96 96 0 1 1 0 192zM96 240a128 128 0 1 0 256 0A128 128 0 1 0 96 240zm88 0c0-22.1 17.9-40 40-40c8.8 0 16-7.2 16-16s-7.2-16-16-16c-39.8 0-72 32.2-72 72c0 8.8 7.2 16 16 16s16-7.2 16-16z"/></symbol>
<symbol xmlns="http://www.w3.org/2000/svg" viewBox="0 0 512 512" fill="currentColor" id="cog"><path d="M194 0H306l17.2 78.4c15.8 6.5 30.6 15.1 44 25.4l76.5-24.4 56 97-59.4 54.1c1.1 8.3 1.7 16.8 1.7 25.4s-.6 17.1-1.7 25.4l59.4 54.1-56 97-76.5-24.4c-13.4 10.3-28.2 18.9-44 25.4L306 512H194l-17.2-78.4c-15.8-6.5-30.6-15.1-44-25.4L56.3 432.5l-56-97 59.4-54.1C58.6 273.1 58 264.6 58 256s.6-17.1 1.7-25.4L.3 176.5l56-97 76.5 24.4c13.4-10.3 28.2-18.9 44-25.4L194 0zm56 336a80 80 0 1 0 0-160 80 80 0 1 0 0 160z"/></symbol>
<symbol xmlns="http://www.w3.org/2000/svg" viewBox="0 0 448 512" fill="currentColor" id="bars"><path d="M0 88C0 74.7 10.7 64 24 64H424c13.3 0 24 10.7 24 24s-10.7 24-24 24H24C10.7 112 0 101.3 0 88zM0 248c0-13.3 10.7-24 24-24H424c13.3 0 24 10.7 24 24s-10.7 24-24 24H24c-13.3 0-24-10.7-24-24zM448 408c0 13.3-10.7 24-24 24H24c-13.3 0-24-10.7-24-24s10.7-24 24-24H424c13.3 0 24 10.7 24 24z"/></symbol>
<symbol xmlns="http://www.w3.org/2000/svg" viewBox="0 0 512 512" fill="currentColor" id="heart"><path d="M47.6 300.4L228.3 469.1c7.5 7 17.4 10.9 27.7 10.9s20.2-3.9 27.7-10.9L464.4 300.4c30.4-28.3 47.6-68 47.6-109.5v-5.8c0-69.9-50.5-129.5-119.4-141C347 36.5 300.6 51.4 268 84L256 96 244 84c-32.6-32.6-79-47.5-124.6-39.9C50.5 55.6 0 115.2 0 185.1v5.8c0 41.5 17.2 81.2 47.6 109.5z"/></symbol>
</svg>