<?xml version="1.0" standalone="no"?>
<!DOCTYPE svg PUBLIC "-//W3C//DTD SVG 20010904//EN"
 "http://www.w3.org/TR/2001/REC-SVG-20010904/DTD/svg10.dtd">
<svg version="1.0" xmlns="http://www.w3.org/2000/svg"
 width="700.000000pt" height="700.000000pt" viewBox="0 0 700.000000 700.000000"
 preserveAspectRatio="xMidYMid meet">
<metadata>
Created by potrace 1.14, written by Peter Selinger 2001-2017
</metadata>
<g transform="translate(0.000000,700.000000) scale(0.100000,-0.100000)"
fill="#000000" stroke="none">
<path d="M1590 6559 c-128 -19 -229 -107 -266 -231 -8 -27 -11 -738 -10 -2630
l1 -2593 28 -57 c69 -142 229 -205 378 -152 52 19 102 61 184 155 22 25 65 75
95 109 69 80 272 311 285 326 6 6 35 39 65 74 30 35 104 121 165 190 60 69
121 138 135 154 14 16 30 34 35 40 10 11 115 132 165 189 68 79 119 131 123
127 2 -3 186 -369 408 -814 363 -727 410 -816 459 -870 201 -218 569 -165 703
101 46 91 59 212 33 308 -7 28 -189 404 -405 837 -216 433 -390 791 -388 795
3 5 371 8 819 7 887 0 870 -1 955 57 79 54 122 131 127 227 7 106 -33 188
-134 278 -31 27 -89 78 -130 114 -40 36 -78 70 -84 75 -6 6 -56 50 -111 99
-160 142 -235 209 -265 236 -24 22 -102 91 -179 158 -14 13 -39 35 -56 50 -16
15 -111 99 -210 187 -99 87 -185 164 -191 170 -6 5 -42 37 -79 70 -87 77 -89
78 -171 152 -38 34 -80 71 -93 82 -26 23 -146 130 -231 206 -56 50 -185 164
-224 198 -12 10 -37 33 -56 50 -19 18 -73 66 -120 107 -47 41 -101 89 -120
107 -19 17 -46 41 -59 52 -25 21 -137 121 -236 210 -84 76 -112 101 -260 231
-71 63 -135 119 -141 125 -10 9 -135 121 -174 155 -9 8 -45 40 -80 70 -35 30
-70 62 -79 71 -55 56 -400 353 -422 365 -47 24 -141 41 -189 33z"/>
</g>
</svg>
